<svg xmlns="http://www.w3.org/2000/svg" width="286" height="74" style=""><rect id="backgroundrect" width="100%" height="100%" x="0" y="0" fill="none" stroke="none"/>  <g class="currentLayer" style=""><title>Layer 1</title><g id="svg_2" class="selected" fill="#ffffff" fill-opacity="1"><svg xmlns="http://www.w3.org/2000/svg" viewBox="-5.000208408062463 -4.997101389570162 119.81040954589844 117.3770980834961" height="82" width="83" y="-3.46380615234375" x="-3.46380615234375" preserveAspectRatio="xMinYMin" style="overflow: visible;" id="svg_4"><path id="svg_1" dataName="qqqq 1" class="cls-1" d="M109.68,25.87a2.85,2.85,0,0,0-.12-.31,4.75,4.75,0,0,0-.25-.56c-.07-.12-.16-.21-.23-.32a2.93,2.93,0,0,0-.36-.43L108.4,24a3.5,3.5,0,0,0-.3-.24l-.16-.07a.6.6,0,0,0-.13-.09L65.7,2.53a24.32,24.32,0,0,0-21.59,0L2,23.59a1,1,0,0,0-.13.09l-.15.07a2.43,2.43,0,0,0-.3.24c-.11.09-.23.17-.33.26a3.65,3.65,0,0,0-.35.43A2.35,2.35,0,0,0,.51,25a2.81,2.81,0,0,0-.25.56c0,.11-.1.2-.13.31a3.83,3.83,0,0,0-.13,1V62.28A29.06,29.06,0,0,0,16.16,88.43L53.29,107a3.66,3.66,0,0,0,.43.15,1.57,1.57,0,0,0,.28.1,3.51,3.51,0,0,0,.91.13,3.57,3.57,0,0,0,.91-.13,1.48,1.48,0,0,0,.27-.1,3.26,3.26,0,0,0,.44-.15L93.65,88.43a29.06,29.06,0,0,0,16.16-26.15V26.83A3.42,3.42,0,0,0,109.68,25.87ZM47.35,9A17,17,0,0,1,62.47,9L98.1,26.83,67.45,42.15l-5,2.5a17,17,0,0,1-15.12,0l-5-2.49h0L18.47,30.21l2.47.24a58.35,58.35,0,0,0,8.67,0c2.88-.25,5.77-.53,8.66-.69q8.65-.45,17.32-1.08c5.78-.49,11.55-.87,17.33-1.45a.37.37,0,0,0,.32-.33.36.36,0,0,0-.32-.4c-5.78-.57-11.55-1-17.33-1.44S44,24.23,38.27,23.93c-2.89-.15-5.78-.44-8.66-.69a57,57,0,0,0-8.67,0c-.82.06-1.65.16-2.47.24ZM7.24,62.28V32.68l31.91,16A21.87,21.87,0,0,1,51.29,68.31V92.78c-.68-1.42-1.39-2.82-2.15-4.2A48.29,48.29,0,0,0,44.72,82c-1.67-2.06-3.37-4.09-5-6.2Q35,69.48,30.08,63.25c-3.34-4.12-6.58-8.3-10-12.37a.38.38,0,0,0-.45-.09.38.38,0,0,0-.15.5c2.44,4.71,5.05,9.31,7.57,14s5.2,9.21,7.88,13.77c1.34,2.28,2.56,4.63,3.82,7a46.89,46.89,0,0,0,4.36,6.61c.56.71,1.15,1.4,1.74,2.09L19.4,82A21.88,21.88,0,0,1,7.24,62.28ZM90.42,82l-31.89,16V68.31A21.88,21.88,0,0,1,70.69,48.63l15.55-7.78,10-5c-.68.79-1.35,1.59-2,2.4A49.56,49.56,0,0,0,89.76,45c-1.29,2.38-2.54,4.78-3.91,7.11q-4.11,7-8.07,14.06C75.2,70.94,72.53,75.64,70,80.44a.36.36,0,0,0,.6.4c3.47-4.16,6.78-8.43,10.17-12.65s6.64-8.53,9.88-12.85c1.62-2.16,3.35-4.24,5-6.34a49.56,49.56,0,0,0,4.52-6.71c.83-1.49,1.6-3,2.34-4.58V62.28A21.88,21.88,0,0,1,90.42,82Z" style="" fill="#ffffff" fill-opacity="1"/></svg></g><g id="svg_3" class="" fill="#ffffff" fill-opacity="1"><svg y="14.53619384765625" viewBox="3.9000000953674316 10.479999542236328 181.90000915527344 34.029998779296875" x="104.53619384765625" height="34" width="181" style="overflow: visible;" id="svg_5"><g fill="#ffffff" fill-opacity="1" style="" id="svg_6"><path d="M9.82,43.8 L3.9,43.8 L3.9,11.23 L24.49,11.23 L24.49,16.26 L9.82,16.26 L9.82,24.58 L22.84,24.58 L22.84,29.61 L9.82,29.61 L9.82,43.8 zM32.8,43.8 L32.8,11.23 L38.72,11.23 L38.72,43.8 L32.8,43.8 zM76.5,43.8 L71.47,43.8 Q69.87,41.13 67.9,38.05 Q65.92,34.97 63.81,31.84 Q61.69,28.72 59.51,25.78 Q57.32,22.84 55.35,20.49 L55.35,20.49 L55.35,43.8 L49.52,43.8 L49.52,11.23 L54.36,11.23 Q56.24,13.21 58.4,15.91 Q60.57,18.61 62.75,21.53 Q64.94,24.44 66.98,27.38 Q69.03,30.32 70.63,32.85 L70.63,32.85 L70.63,11.23 L76.5,11.23 L76.5,43.8 zM92.14,27.5 L92.14,27.5 Q92.14,30.17 92.8,32.36 Q93.46,34.55 94.7,36.07 Q95.95,37.6 97.74,38.45 Q99.52,39.29 101.78,39.29 L101.78,39.29 Q103.99,39.29 105.77,38.45 Q107.56,37.6 108.8,36.07 Q110.05,34.55 110.71,32.36 Q111.37,30.17 111.37,27.5 L111.37,27.5 Q111.37,24.82 110.71,22.63 Q110.05,20.45 108.8,18.92 Q107.56,17.39 105.77,16.54 Q103.99,15.7 101.78,15.7 L101.78,15.7 Q99.52,15.7 97.74,16.54 Q95.95,17.39 94.7,18.94 Q93.46,20.49 92.8,22.65 Q92.14,24.82 92.14,27.5 zM117.57,27.5 L117.57,27.5 Q117.57,31.68 116.32,34.87 Q115.08,38.07 112.94,40.21 Q110.8,42.35 107.94,43.43 Q105.07,44.51 101.82,44.51 L101.82,44.51 Q98.58,44.51 95.69,43.43 Q92.8,42.35 90.66,40.21 Q88.52,38.07 87.25,34.87 Q85.99,31.68 85.99,27.5 L85.99,27.5 Q85.99,23.31 87.25,20.14 Q88.52,16.97 90.71,14.81 Q92.89,12.64 95.76,11.56 Q98.63,10.48 101.82,10.48 L101.82,10.48 Q105.02,10.48 107.89,11.56 Q110.75,12.64 112.89,14.81 Q115.03,16.97 116.3,20.14 Q117.57,23.31 117.57,27.5 zM139.6,44.51 L139.6,44.51 Q136.27,44.51 133.87,43.55 Q131.47,42.58 129.9,40.84 Q128.32,39.1 127.57,36.75 Q126.82,34.4 126.82,31.58 L126.82,31.58 L126.82,11.23 L132.79,11.23 L132.79,31.02 Q132.79,33.23 133.28,34.8 Q133.78,36.38 134.69,37.37 Q135.61,38.35 136.86,38.82 Q138.1,39.29 139.65,39.29 L139.65,39.29 Q141.2,39.29 142.47,38.82 Q143.74,38.35 144.66,37.37 Q145.57,36.38 146.07,34.8 Q146.56,33.23 146.56,31.02 L146.56,31.02 L146.56,11.23 L152.53,11.23 L152.53,31.58 Q152.53,34.4 151.75,36.75 Q150.98,39.1 149.4,40.84 Q147.83,42.58 145.39,43.55 Q142.94,44.51 139.6,44.51 zM159.81,11.23 L185.8,11.23 L185.8,16.36 L175.79,16.36 L175.79,43.8 L169.82,43.8 L169.82,16.36 L159.81,16.36 L159.81,11.23 z" id="svg_7" fill="#ffffff" fill-opacity="1"/></g></svg></g></g></svg>